<svg width="40" height="40" viewBox="0 0 40 40" fill="none" xmlns="http://www.w3.org/2000/svg">
<path d="M23.4745 4.50951C21.7957 2.52424 20.3501 0.507951 20.0548 0.0891829C20.0237 0.058163 19.977 0.058163 19.946 0.0891829C19.6506 0.507951 18.205 2.52424 16.5262 4.50951C2.11658 22.8267 18.7957 35.1883 18.7957 35.1883L18.9356 35.2812C19.0599 37.189 19.3708 39.9342 19.3708 39.9342H19.9926H20.6144C20.6144 39.9342 20.9253 37.2044 21.0496 35.2812L21.1895 35.1727C21.205 35.1727 37.8842 22.8267 23.4745 4.50951ZM19.9926 34.909C19.9926 34.909 19.2465 34.2731 19.0444 33.9473V33.9163L19.946 13.9706C19.946 13.9085 20.0392 13.9085 20.0392 13.9706L20.9408 33.9163V33.9473C20.7387 34.2731 19.9926 34.909 19.9926 34.909Z" fill="#FFD470"/>
</svg>
