<svg width="36" height="40" viewBox="0 0 36 40" fill="none" xmlns="http://www.w3.org/2000/svg">
<path d="M3.57523 36.0025L0.365234 0.0012207H35.6352L32.4227 35.9975L17.9777 40L3.57523 36.0025Z" fill="#E44D26"/>
<path d="M29.6712 33.7049L32.4175 2.94495H18V36.9412L29.6712 33.7049Z" fill="#F16529"/>
<path d="M17.9852 7.35999H6.92773L8.11898 20.7125H18.0002V16.2975H12.1577L11.754 11.7762H18.0002V7.35999H17.9852ZM18.0002 27.75L17.9815 27.755L13.064 26.4275L12.7515 22.9062H8.31648L8.93523 29.8387L17.9802 32.3387L18.0002 32.3325V27.75Z" fill="#EBEBEB"/>
<path d="M17.9849 20.7125H23.4224L22.9224 26.4375L17.9974 27.7662V32.36L27.0499 29.8512L28.2624 16.295H17.9999L17.9849 20.7125ZM28.9399 8.54499L29.0449 7.35999H17.9824V11.775H28.6474L28.7349 10.7825L28.9399 8.54499Z" fill="white"/>
</svg>
