<svg width="40" height="40" viewBox="0 0 40 40" fill="none" xmlns="http://www.w3.org/2000/svg">
<g clip-path="url(#clip0_436_29)">
<path d="M20.0001 23.5388C21.9728 23.5388 23.572 21.9396 23.572 19.9669C23.572 17.9942 21.9728 16.395 20.0001 16.395C18.0274 16.395 16.4282 17.9942 16.4282 19.9669C16.4282 21.9396 18.0274 23.5388 20.0001 23.5388Z" fill="#00D8FF"/>
<path fill-rule="evenodd" clip-rule="evenodd" d="M20.0004 12.7045C24.7961 12.7045 29.2513 13.3926 32.6104 14.549C36.6577 15.9424 39.1461 18.0544 39.1461 19.9669C39.1461 21.9598 36.5089 24.2035 32.1626 25.6435C28.8768 26.7321 24.5528 27.3005 20.0004 27.3005C15.333 27.3005 10.9131 26.767 7.59024 25.6315C3.38616 24.1946 0.854004 21.9218 0.854004 19.9669C0.854004 18.07 3.22995 15.9743 7.22035 14.583C10.592 13.4075 15.1572 12.7045 19.9998 12.7045H20.0004Z" stroke="#00D8FF" stroke-width="2.73408"/>
<path fill-rule="evenodd" clip-rule="evenodd" d="M13.6782 16.3566C16.074 12.2023 18.8957 8.68668 21.5757 6.35446C24.8046 3.54448 27.8774 2.44401 29.534 3.3993C31.2604 4.39489 31.8866 7.80046 30.9627 12.2848C30.265 15.6752 28.5965 19.7047 26.3222 23.6483C23.9904 27.6916 21.3204 31.2539 18.677 33.5645C15.332 36.4885 12.0981 37.5467 10.4046 36.57C8.76129 35.6231 8.13288 32.5173 8.92121 28.3654C9.58729 24.8574 11.2588 20.5516 13.6774 16.3566L13.6782 16.3566Z" stroke="#00D8FF" stroke-width="2.73408"/>
<path fill-rule="evenodd" clip-rule="evenodd" d="M13.6844 23.659C11.2817 19.5093 9.64592 15.3081 8.96311 11.8216C8.14118 7.6208 8.72231 4.40897 10.3774 3.4509C12.1022 2.45239 15.3653 3.61067 18.789 6.65063C21.3775 8.94896 24.0356 12.4062 26.3165 16.3461C28.655 20.3855 30.4076 24.4779 31.0894 27.922C31.9522 32.2803 31.2539 35.6104 29.562 36.5899C27.9203 37.5403 24.9162 36.5341 21.7129 33.7775C19.0064 31.4485 16.1107 27.8499 13.6844 23.6589V23.659Z" stroke="#00D8FF" stroke-width="2.73408"/>
</g>
<defs>
<clipPath id="clip0_436_29">
<rect width="40" height="40" fill="white"/>
</clipPath>
</defs>
</svg>
