<svg width="40" height="40" viewBox="0 0 40 40" fill="none" xmlns="http://www.w3.org/2000/svg">
<path d="M36.9248 30.8288L20.7123 40V32.8588L30.8123 27.3012L36.9248 30.8288ZM38.0348 29.825V10.65L32.1048 14.0775V26.405L38.0348 29.825ZM3.07729 30.8288L19.2873 40V32.8588L9.18104 27.3L3.07729 30.8288ZM1.96729 29.825V10.65L7.89729 14.0775V26.405L1.96729 29.825ZM2.66229 9.405L19.2873 0V6.9025L8.54979 12.8125L2.66229 9.405ZM37.3373 9.405L20.7123 0V6.9025L31.4498 12.8062L37.3373 9.405Z" fill="#8ED6FB"/>
<path d="M19.2873 31.5462L9.31982 26.0625V15.2075L19.2873 20.9625V31.5462ZM20.7123 31.5462L30.6811 26.0675V15.205L20.7123 20.9625V31.5462ZM9.99482 13.9525L19.9998 8.45374L30.0048 13.9537L19.9998 19.7287L9.99482 13.9525Z" fill="#1C78C0"/>
</svg>
