<svg width="40" height="41" viewBox="0 0 40 41" fill="none" xmlns="http://www.w3.org/2000/svg">
<g clip-path="url(#clip0_59_765)">
<path d="M36.925 30.9218L20.7125 40.093V32.9518L30.8125 27.3943L36.925 30.9218ZM38.035 29.918V10.743L32.105 14.1705V26.498L38.035 29.918ZM3.07753 30.9218L19.2875 40.093V32.9518L9.18128 27.393L3.07753 30.9218ZM1.96753 29.918V10.743L7.89753 14.1705V26.498L1.96753 29.918ZM2.66253 9.49802L19.2875 0.0930176V6.99552L8.55003 12.9055L2.66253 9.49802ZM37.3375 9.49802L20.7125 0.0930176V6.99552L31.45 12.8993L37.3375 9.49802Z" fill="#FFE6AB"/>
<path d="M19.2876 31.6394L9.32007 26.1556V15.3006L19.2876 21.0556V31.6394ZM20.7126 31.6394L30.6813 26.1606V15.2981L20.7126 21.0556V31.6394ZM9.99507 14.0456L20.0001 8.54688L30.0051 14.0469L20.0001 19.8219L9.99507 14.0456Z" fill="#FFD470"/>
</g>
<defs>
<clipPath id="clip0_59_765">
<rect width="40" height="40" fill="white" transform="translate(0 0.0930176)"/>
</clipPath>
</defs>
</svg>
