<svg viewBox="0 0 35 35" fill="none" xmlns="http://www.w3.org/2000/svg">
<path d="M17.5 4.73959C17.5 4.73959 8.75 14.5833 8.75 20.4167C8.75 25.2583 12.6729 29.1667 17.5 29.1667C19.8206 29.1667 22.0462 28.2448 23.6872 26.6039C25.3281 24.9629 26.25 22.7373 26.25 20.4167C26.25 14.5833 17.5 4.73959 17.5 4.73959ZM21.1021 14.5396L22.6479 16.0854L13.8979 24.8354L12.3521 23.2896M14.2188 14.5833C14.7022 14.5833 15.1659 14.7754 15.5077 15.1173C15.8496 15.4591 16.0417 15.9228 16.0417 16.4063C16.0417 16.8897 15.8496 17.3534 15.5077 17.6953C15.1659 18.0371 14.7022 18.2292 14.2188 18.2292C13.7353 18.2292 13.2716 18.0371 12.9298 17.6953C12.5879 17.3534 12.3958 16.8897 12.3958 16.4063C12.3958 15.9228 12.5879 15.4591 12.9298 15.1173C13.2716 14.7754 13.7353 14.5833 14.2188 14.5833ZM20.7813 21.1458C21.2647 21.1458 21.7284 21.3379 22.0702 21.6798C22.4121 22.0216 22.6042 22.4853 22.6042 22.9688C22.6042 23.4522 22.4121 23.9159 22.0702 24.2578C21.7284 24.5996 21.2647 24.7917 20.7813 24.7917C20.2978 24.7917 19.8341 24.5996 19.4923 24.2578C19.1504 23.9159 18.9583 23.4522 18.9583 22.9688C18.9583 22.4853 19.1504 22.0216 19.4923 21.6798C19.8341 21.3379 20.2978 21.1458 20.7813 21.1458Z" fill="#CDE7FF"/>
</svg>
