<svg viewBox="0 0 36 35" fill="none" xmlns="http://www.w3.org/2000/svg">
<path d="M6.33333 14.5833C5.94656 14.5833 5.57563 14.4297 5.30214 14.1562C5.02865 13.8827 4.875 13.5118 4.875 13.125C4.875 12.7382 5.02865 12.3673 5.30214 12.0938C5.57563 11.8203 5.94656 11.6667 6.33333 11.6667H18C18.7735 11.6667 19.5154 11.3594 20.0624 10.8124C20.6094 10.2654 20.9167 9.52354 20.9167 8.74999C20.9167 7.97644 20.6094 7.23458 20.0624 6.68759C19.5154 6.14061 18.7735 5.83332 18 5.83332C17.1979 5.83332 16.4688 6.15416 15.9438 6.69374C15.375 7.29166 14.4417 7.29166 13.8729 6.69374C13.3042 6.12499 13.3042 5.19166 13.8729 4.62291C14.9375 3.57291 16.3958 2.91666 18 2.91666C19.5471 2.91666 21.0308 3.53124 22.1248 4.6252C23.2188 5.71916 23.8333 7.20289 23.8333 8.74999C23.8333 10.2971 23.2188 11.7808 22.1248 12.8748C21.0308 13.9687 19.5471 14.5833 18 14.5833H6.33333ZM28.2083 17.5C28.5951 17.5 28.966 17.3463 29.2395 17.0729C29.513 16.7994 29.6667 16.4284 29.6667 16.0417C29.6667 15.6549 29.513 15.2839 29.2395 15.0105C28.966 14.737 28.5951 14.5833 28.2083 14.5833C27.8 14.5833 27.4354 14.7437 27.1729 15.0062C26.6042 15.575 25.6854 15.575 25.1167 15.0062C24.5625 14.4375 24.5625 13.5187 25.1167 12.95C25.9042 12.1625 26.9979 11.6667 28.2083 11.6667C29.3687 11.6667 30.4815 12.1276 31.3019 12.9481C32.1224 13.7685 32.5833 14.8813 32.5833 16.0417C32.5833 17.202 32.1224 18.3148 31.3019 19.1352C30.4815 19.9557 29.3687 20.4167 28.2083 20.4167H7.79167C7.40489 20.4167 7.03396 20.263 6.76047 19.9895C6.48698 19.716 6.33333 19.3451 6.33333 18.9583C6.33333 18.5715 6.48698 18.2006 6.76047 17.9271C7.03396 17.6536 7.40489 17.5 7.79167 17.5H28.2083ZM26.75 26.25H6.33333C5.94656 26.25 5.57563 26.0963 5.30214 25.8229C5.02865 25.5494 4.875 25.1784 4.875 24.7917C4.875 24.4049 5.02865 24.0339 5.30214 23.7605C5.57563 23.487 5.94656 23.3333 6.33333 23.3333H26.75C27.9103 23.3333 29.0231 23.7943 29.8436 24.6147C30.6641 25.4352 31.125 26.548 31.125 27.7083C31.125 28.8686 30.6641 29.9814 29.8436 30.8019C29.0231 31.6224 27.9103 32.0833 26.75 32.0833C25.5396 32.0833 24.4458 31.5875 23.6583 30.8C23.1042 30.2312 23.1042 29.3125 23.6583 28.7437C24.2271 28.175 25.1458 28.175 25.7146 28.7437C25.9771 29.0062 26.3417 29.1667 26.75 29.1667C27.1368 29.1667 27.5077 29.013 27.7812 28.7395C28.0547 28.466 28.2083 28.0951 28.2083 27.7083C28.2083 27.3215 28.0547 26.9506 27.7812 26.6771C27.5077 26.4036 27.1368 26.25 26.75 26.25Z" fill="#FFEBBB"/>
</svg>
