<svg viewBox="0 0 36 35" fill="none" xmlns="http://www.w3.org/2000/svg">
<path d="M13.6252 17.5C14.3981 17.7042 14.8647 18.5062 14.6606 19.2792L12.7647 26.3229C12.5606 27.1104 11.7585 27.5625 10.9856 27.3583C10.1981 27.1542 9.746 26.3521 9.97933 25.5792L11.846 18.5354C12.0502 17.7479 12.8522 17.2958 13.6252 17.5ZM19.4585 17.5C20.2314 17.7042 20.6981 18.5062 20.4939 19.2792L17.4752 30.5521C17.271 31.3542 16.4689 31.7917 15.6814 31.5875C14.9085 31.3542 14.4418 30.5812 14.646 29.7937L17.6793 18.5354C17.8835 17.7479 18.6856 17.2958 19.4585 17.5ZM25.2918 17.5C26.0647 17.7042 26.5314 18.5062 26.3272 19.2792L24.4314 26.3229C24.2272 27.1104 23.4252 27.5625 22.6522 27.3583C21.8647 27.1542 21.4127 26.3521 21.646 25.5792L23.5127 18.5354C23.7168 17.7479 24.5189 17.2958 25.2918 17.5ZM25.2918 14.5833V13.125C25.2918 11.1911 24.5236 9.33646 23.1561 7.969C21.7887 6.60155 19.934 5.83332 18.0002 5.83332C14.3543 5.83332 11.3647 8.48749 10.796 11.9437C10.3147 11.7687 9.78975 11.6667 9.25016 11.6667C8.08984 11.6667 6.97704 12.1276 6.15657 12.9481C5.3361 13.7685 4.87516 14.8813 4.87516 16.0417C4.87516 17.6604 5.75016 19.075 7.06266 19.8333V19.8187C7.79183 20.2271 7.996 21.1458 7.60225 21.8167C7.19391 22.5021 6.3335 22.75 5.60433 22.3417V22.3562C3.41683 21.1021 1.9585 18.7396 1.9585 16.0417C1.9585 14.1078 2.72672 12.2531 4.09418 10.8857C5.46163 9.51822 7.31629 8.74999 9.25016 8.74999C10.7085 5.32291 14.0627 2.91666 18.0002 2.91666C23.0022 2.91666 27.1002 6.79582 27.4793 11.7104L28.2085 11.6667C29.7556 11.6667 31.2393 12.2812 32.3333 13.3752C33.4272 14.4692 34.0418 15.9529 34.0418 17.5C34.0418 19.6875 32.8752 21.5396 31.1252 22.5458C30.396 22.9396 29.5356 22.7062 29.1272 22.0062C28.7335 21.3062 28.9377 20.4167 29.6668 20.0083V20.0229C30.5418 19.5271 31.1252 18.5792 31.1252 17.5C31.1252 16.7264 30.8179 15.9846 30.2709 15.4376C29.7239 14.8906 28.982 14.5833 28.2085 14.5833H25.2918Z" fill="#62A6E4"/>
</svg>
