<svg width="25" height="25" viewBox="0 0 25 25" fill="none" xmlns="http://www.w3.org/2000/svg">
<path d="M11.8673 21.2335L4.40922 16.9844C4.31871 16.9308 4.25837 16.8354 4.25837 16.7281V10.1608C4.25837 10.0476 4.38508 9.9761 4.48162 10.0297L13.1404 14.9641C13.2611 15.0357 13.412 14.9463 13.412 14.8092V11.609C13.412 11.4838 13.3456 11.3646 13.2309 11.2991L2.81624 5.36347C2.72573 5.30983 2.60505 5.30983 2.51454 5.36347L1.15085 6.14416C1.06034 6.1978 1 6.29315 1 6.40042V18.5994C1 18.7067 1.06034 18.802 1.15085 18.8557L11.8491 24.9582C11.9397 25.0118 12.0603 25.0118 12.1509 24.9582L21.1355 19.833C21.2562 19.7615 21.2562 19.5947 21.1355 19.5231L18.3357 17.926C18.2211 17.8604 18.0883 17.8604 17.9737 17.926L12.175 21.2335C12.0845 21.2871 11.9638 21.2871 11.8733 21.2335H11.8673Z" fill="#FFD470"/>
<path d="M22.8493 6.13824L12.151 0.0416913C12.0605 -0.011944 11.9399 -0.011944 11.8493 0.0416913L6.19549 3.26577C6.07481 3.33728 6.07481 3.50415 6.19549 3.57566L8.97113 5.16088C9.08578 5.22644 9.21853 5.22644 9.33317 5.16088L11.8674 3.71869C11.958 3.66505 12.0786 3.66505 12.1691 3.71869L19.6272 7.96779C19.7177 8.02143 19.778 8.11678 19.778 8.22405V14.8212C19.778 14.9464 19.8444 15.0656 19.9591 15.1311L22.7347 16.7104C22.8554 16.7819 23.0062 16.6925 23.0062 16.5554V6.40045C23.0062 6.29318 22.9459 6.19783 22.8554 6.1442L22.8493 6.13824Z" fill="#FFD470"/>
</svg>
