<svg width="40" height="40" viewBox="0 0 40 40" fill="none" xmlns="http://www.w3.org/2000/svg">
<g clip-path="url(#clip0_59_744)">
<path d="M37.645 0.000244141L34.4318 35.9961L19.9884 40.0002L5.58478 36.0017L2.375 0.000244141H37.645Z" fill="#FFD470"/>
<path d="M20.01 36.9396L31.681 33.7039L34.4269 2.94385H20.01V36.9396Z" fill="#FFE6AB"/>
<path d="M20.01 16.2964H9.7334L10.1291 20.7118H20.01V16.2964Z" fill="#202020"/>
<path d="M20.01 7.35938H19.9948H8.93823L9.33961 11.7749H20.01V7.35938Z" fill="#202020"/>
<path d="M10.3264 22.9194L10.945 29.8523L19.9897 32.3632L20.01 32.3575V27.7636L19.9907 27.7688L15.0732 26.4409L14.7588 22.9194H12.3693H10.3264Z" fill="#202020"/>
<path d="M25.4317 20.7117L24.9192 26.4382L19.9946 27.7674V32.3611L29.0465 29.8524L29.1129 29.1064L30.1505 17.482L30.2582 16.2963L31.0554 7.35938H19.9946V11.7749H26.2164L25.8147 16.2963H19.9946V20.7117H25.4317Z" fill="#202020"/>
</g>
<defs>
<clipPath id="clip0_59_744">
<rect width="40" height="40" fill="white" transform="translate(0 0.000244141)"/>
</clipPath>
</defs>
</svg>
