<svg width="36" height="40" viewBox="0 0 36 40" fill="none" xmlns="http://www.w3.org/2000/svg">
<path d="M35.645 0L32.4318 35.9958L17.9884 40L3.58478 36.0015L0.375 0H35.645Z" fill="#264DE4"/>
<path d="M18.0098 36.9393L29.6807 33.7037L32.4266 2.9436H18.0098V36.9393Z" fill="#2965F1"/>
<path d="M18.01 16.2961H7.7334L8.12914 20.7115H18.01V16.2961Z" fill="#EBEBEB"/>
<path d="M18.0098 7.35913H17.9945H6.93799L7.33937 11.7746H18.0098V7.35913Z" fill="#EBEBEB"/>
<path d="M8.32617 22.9193L8.94477 29.8522L17.9895 32.363L18.0098 32.3574V27.7635L17.9904 27.7686L13.0729 26.4408L12.7586 22.9193H10.3691H8.32617Z" fill="#EBEBEB"/>
<path d="M23.4317 20.7115L22.9192 26.4379L17.9946 27.7671V32.3608L27.0465 29.8521L27.1129 29.1061L28.1505 17.4817L28.2582 16.2961L29.0554 7.35913H17.9946V11.7746H24.2164L23.8147 16.2961H17.9946V20.7115H23.4317Z" fill="white"/>
</svg>
