<svg width="18" height="19" viewBox="0 0 18 19" fill="none" xmlns="http://www.w3.org/2000/svg">
<path d="M4.81613 9.30651C6.15938 9.77865 7.57646 10.0059 9 9.97757C10.4236 10.0058 11.8407 9.77828 13.1839 9.30595C14.2324 8.89701 14.6042 8.44251 14.6042 8.18095V6.18126C14.2376 6.42674 13.8443 6.6298 13.4319 6.78651C12.0107 7.2954 10.5094 7.54351 9 7.51888C7.49078 7.54305 5.98953 7.29535 4.56806 6.78763C4.15545 6.63091 3.76214 6.42746 3.39581 6.18126V8.17813C3.39581 8.44476 3.76875 8.89701 4.81613 9.30651Z" fill="#FFD470"/>
<path d="M4.81613 13.0781C5.29065 13.259 5.77999 13.3985 6.27863 13.4949C7.17527 13.6683 8.08674 13.7537 9 13.7497C9.91324 13.7539 10.8247 13.6687 11.7214 13.4954C12.22 13.3991 12.7093 13.2596 13.1839 13.0786C14.2324 12.6697 14.6042 12.2152 14.6042 11.9536V10.0468C14.3012 10.2291 13.9827 10.3844 13.6524 10.5108C12.1594 11.0394 10.5836 11.2953 9 11.2663C7.41627 11.2944 5.84039 11.0376 4.34756 10.508C4.01744 10.3812 3.69899 10.226 3.39581 10.0439V11.9525C3.39581 12.2146 3.76875 12.6674 4.81613 13.0781Z" fill="#FFD470"/>
<path d="M9 17.6C12.0938 17.6 14.6042 16.619 14.6042 15.4096V13.8138C14.3285 13.98 14.0398 14.1233 13.7407 14.2424L13.6524 14.2779C12.1597 14.8081 10.5838 15.0655 9 15.0378C7.41611 15.0663 5.84008 14.8088 4.34756 14.2779C4.31719 14.2666 4.28794 14.2537 4.25925 14.2424C3.96024 14.1233 3.67147 13.98 3.39581 13.8138V15.4096C3.39581 16.619 5.90625 17.6 9 17.6Z" fill="#FFD470"/>
<path d="M9 6.23076C12.0951 6.23076 14.6042 5.25009 14.6042 4.04038C14.6042 2.83067 12.0951 1.85001 9 1.85001C5.90489 1.85001 3.39581 2.83067 3.39581 4.04038C3.39581 5.25009 5.90489 6.23076 9 6.23076Z" fill="#FFD470"/>
</svg>
