<?xml version="1.0" standalone="no"?>
<!DOCTYPE svg PUBLIC "-//W3C//DTD SVG 1.0//EN" "http://www.w3.org/TR/2001/REC-SVG-20010904/DTD/svg10.dtd">
<svg xmlns="http://www.w3.org/2000/svg" xmlns:xlink="http://www.w3.org/1999/xlink" id="body_1" width="205" height="154">

<g transform="matrix(0.24444446 0 0 0.24444446 25.499998 -0)">
    <path d="M0 0L630 0L630 630L0 630z" stroke="none" fill="#F7DF1E" fill-rule="nonzero" />
    <path d="M423.2 492.19C 435.89 512.91 452.40002 528.14 481.6 528.14C 506.13 528.14 521.8 515.88 521.8 498.94C 521.8 478.64 505.69998 471.45 478.69998 459.64L478.69998 459.64L463.9 453.29C 421.18 435.09 392.8 412.29 392.8 364.09003C 392.8 319.69003 426.63 285.89 479.5 285.89C 517.14 285.89 544.2 298.99002 563.7 333.29L563.7 333.29L517.60004 362.89C 507.45004 344.69 496.50003 337.52002 479.50003 337.52002C 462.16003 337.52002 451.17004 348.52002 451.17004 362.89C 451.17004 380.65002 462.17004 387.84003 487.57004 398.84003L487.57004 398.84003L502.37003 405.18002C 552.67004 426.75003 581.07 448.74002 581.07 498.18002C 581.07 551.48004 539.2 580.68005 482.97 580.68005C 427.99 580.68005 392.47 554.48004 375.09 520.1401L375.09 520.1401L423.2 492.19zM214.07 497.32C 223.37001 513.82 231.83 527.77 252.17001 527.77C 271.62003 527.77 283.89 520.16003 283.89 490.57L283.89 490.57L283.89 289.27002L343.09003 289.27002L343.09003 491.37003C 343.09003 552.67004 307.15002 580.57 254.69003 580.57C 207.29004 580.57 179.84003 556.04 165.88004 526.495z" stroke="none" fill="#000000" fill-rule="nonzero" />
</g>
</svg>
