<svg width="50" height="50" viewBox="0 0 50 50" fill="none" xmlns="http://www.w3.org/2000/svg">
<rect width="50" height="50" rx="5" fill="white"/>
<path d="M28.7083 31.8749L41.2083 44.3749L45.6041 39.8749L33.1041 27.3749L28.7083 31.8749ZM36.4583 21.0416C35.6458 21.0416 34.7708 20.9374 34.0833 20.6458L10.3541 44.2708L5.95825 39.8749L21.3958 24.4583L17.7083 20.7499L16.2083 22.2083L13.1874 19.2708V25.2291L11.7291 26.6874L4.39575 19.2708L5.85409 17.8124H11.7083L8.79159 14.8749L16.2083 7.45825C18.6458 5.02075 22.5624 5.02075 24.9999 7.45825L20.6041 11.9583L23.5416 14.8749L22.0624 16.3541L25.7916 20.0624L29.5833 16.1458C29.2916 15.4583 29.1666 14.5833 29.1666 13.8124C29.1666 9.70825 32.4166 6.47909 36.4583 6.47909C37.6874 6.47909 38.7708 6.77075 39.7499 7.35409L34.1874 12.9166L37.3124 16.0416L42.8749 10.4791C43.4583 11.4583 43.7499 12.4999 43.7499 13.8124C43.7499 17.8124 40.5208 21.0416 36.4583 21.0416Z" fill="#121212"/>
</svg>
