<svg width="66" height="60" viewBox="0 0 66 60" fill="none" xmlns="http://www.w3.org/2000/svg">
<mask id="path-2-outside-1_272_251" maskUnits="userSpaceOnUse" x="-2" y="8" width="42" height="35" fill="black">
<rect fill="white" x="-2" y="8" width="42" height="35"/>
<path d="M26.11 9.14H37.58L25.18 42H12.78L0.38 9.14H11.85L18.98 31.46L26.11 9.14Z"/>
</mask>
<path d="M26.11 9.14H37.58L25.18 42H12.78L0.38 9.14H11.85L18.98 31.46L26.11 9.14Z" fill="white"/>
<path d="M26.11 9.14V8.14H25.3797L25.1574 8.8357L26.11 9.14ZM37.58 9.14L38.5156 9.49306L39.0262 8.14H37.58V9.14ZM25.18 42V43H25.8715L26.1156 42.3531L25.18 42ZM12.78 42L11.8444 42.3531L12.0885 43H12.78V42ZM0.38 9.14V8.14H-1.06619L-0.555602 9.49306L0.38 9.14ZM11.85 9.14L12.8026 8.8357L12.5803 8.14H11.85V9.14ZM18.98 31.46L18.0274 31.7643L18.98 34.7463L19.9326 31.7643L18.98 31.46ZM26.11 10.14H37.58V8.14H26.11V10.14ZM36.6444 8.78694L24.2444 41.6469L26.1156 42.3531L38.5156 9.49306L36.6444 8.78694ZM25.18 41H12.78V43H25.18V41ZM13.7156 41.6469L1.3156 8.78694L-0.555602 9.49306L11.8444 42.3531L13.7156 41.6469ZM0.38 10.14H11.85V8.14H0.38V10.14ZM10.8974 9.44429L18.0274 31.7643L19.9326 31.1557L12.8026 8.8357L10.8974 9.44429ZM19.9326 31.7643L27.0626 9.44429L25.1574 8.8357L18.0274 31.1557L19.9326 31.7643Z" fill="#202020" mask="url(#path-2-outside-1_272_251)"/>
<mask id="path-4-outside-2_272_251" maskUnits="userSpaceOnUse" x="29" y="17" width="36" height="36" fill="black">
<rect fill="white" x="29" y="17" width="36" height="36"/>
<path d="M30.86 42.32C39.2507 42.94 45.864 43.25 50.7 43.25C51.32 43.25 51.8367 43.0433 52.25 42.63C52.6633 42.2167 52.87 41.7 52.87 41.08V38.91H39.54C36.7293 38.91 34.4767 38.0627 32.782 36.368C31.0873 34.6733 30.24 32.4207 30.24 29.61V27.44C30.24 24.6293 31.0873 22.3767 32.782 20.682C34.4767 18.9873 36.7293 18.14 39.54 18.14H60.62V26.2H43.26C42.64 26.2 42.1233 26.4067 41.71 26.82C41.2967 27.2333 41.09 27.75 41.09 28.37C41.09 28.99 41.2967 29.5067 41.71 29.92C42.1233 30.3333 42.64 30.54 43.26 30.54H54.42C57.2307 30.54 59.4833 31.3873 61.178 33.082C62.8727 34.7767 63.72 37.0293 63.72 39.84V42.32C63.72 45.1307 62.8727 47.3833 61.178 49.078C59.4833 50.7727 57.2307 51.62 54.42 51.62C47.104 51.62 39.2507 51.2067 30.86 50.38V42.32Z"/>
</mask>
<path d="M30.86 42.32C39.2507 42.94 45.864 43.25 50.7 43.25C51.32 43.25 51.8367 43.0433 52.25 42.63C52.6633 42.2167 52.87 41.7 52.87 41.08V38.91H39.54C36.7293 38.91 34.4767 38.0627 32.782 36.368C31.0873 34.6733 30.24 32.4207 30.24 29.61V27.44C30.24 24.6293 31.0873 22.3767 32.782 20.682C34.4767 18.9873 36.7293 18.14 39.54 18.14H60.62V26.2H43.26C42.64 26.2 42.1233 26.4067 41.71 26.82C41.2967 27.2333 41.09 27.75 41.09 28.37C41.09 28.99 41.2967 29.5067 41.71 29.92C42.1233 30.3333 42.64 30.54 43.26 30.54H54.42C57.2307 30.54 59.4833 31.3873 61.178 33.082C62.8727 34.7767 63.72 37.0293 63.72 39.84V42.32C63.72 45.1307 62.8727 47.3833 61.178 49.078C59.4833 50.7727 57.2307 51.62 54.42 51.62C47.104 51.62 39.2507 51.2067 30.86 50.38V42.32Z" fill="white"/>
<path d="M30.86 42.32L30.9337 41.3227L29.86 41.2434V42.32H30.86ZM52.25 42.63L52.9571 43.3371L52.9571 43.3371L52.25 42.63ZM52.87 38.91H53.87V37.91H52.87V38.91ZM32.782 36.368L33.4891 35.6609L33.4891 35.6609L32.782 36.368ZM32.782 20.682L33.4891 21.3891L32.782 20.682ZM60.62 18.14H61.62V17.14H60.62V18.14ZM60.62 26.2V27.2H61.62V26.2H60.62ZM41.71 26.82L42.4171 27.5271L42.4171 27.5271L41.71 26.82ZM41.71 29.92L41.0029 30.6271L41.0029 30.6271L41.71 29.92ZM61.178 33.082L61.8851 32.3749L61.8851 32.3749L61.178 33.082ZM61.178 49.078L61.8851 49.7851L61.8851 49.7851L61.178 49.078ZM30.86 50.38H29.86V51.2863L30.762 51.3752L30.86 50.38ZM30.7863 43.3173C39.1865 43.938 45.8279 44.25 50.7 44.25V42.25C45.9001 42.25 39.3149 41.942 30.9337 41.3227L30.7863 43.3173ZM50.7 44.25C51.5674 44.25 52.344 43.9502 52.9571 43.3371L51.5429 41.9229C51.3294 42.1364 51.0726 42.25 50.7 42.25V44.25ZM52.9571 43.3371C53.5702 42.724 53.87 41.9474 53.87 41.08H51.87C51.87 41.4526 51.7564 41.7094 51.5429 41.9229L52.9571 43.3371ZM53.87 41.08V38.91H51.87V41.08H53.87ZM52.87 37.91H39.54V39.91H52.87V37.91ZM39.54 37.91C36.9452 37.91 34.964 37.1358 33.4891 35.6609L32.0749 37.0751C33.9894 38.9896 36.5135 39.91 39.54 39.91V37.91ZM33.4891 35.6609C32.0142 34.186 31.24 32.2048 31.24 29.61H29.24C29.24 32.6365 30.1604 35.1606 32.0749 37.0751L33.4891 35.6609ZM31.24 29.61V27.44H29.24V29.61H31.24ZM31.24 27.44C31.24 24.8452 32.0142 22.864 33.4891 21.3891L32.0749 19.9749C30.1604 21.8894 29.24 24.4135 29.24 27.44H31.24ZM33.4891 21.3891C34.964 19.9142 36.9452 19.14 39.54 19.14V17.14C36.5135 17.14 33.9894 18.0604 32.0749 19.9749L33.4891 21.3891ZM39.54 19.14H60.62V17.14H39.54V19.14ZM59.62 18.14V26.2H61.62V18.14H59.62ZM60.62 25.2H43.26V27.2H60.62V25.2ZM43.26 25.2C42.3926 25.2 41.616 25.4998 41.0029 26.1129L42.4171 27.5271C42.6306 27.3136 42.8874 27.2 43.26 27.2V25.2ZM41.0029 26.1129C40.3898 26.726 40.09 27.5026 40.09 28.37H42.09C42.09 27.9974 42.2036 27.7406 42.4171 27.5271L41.0029 26.1129ZM40.09 28.37C40.09 29.2374 40.3898 30.014 41.0029 30.6271L42.4171 29.2129C42.2036 28.9994 42.09 28.7426 42.09 28.37H40.09ZM41.0029 30.6271C41.616 31.2402 42.3926 31.54 43.26 31.54V29.54C42.8874 29.54 42.6306 29.4264 42.4171 29.2129L41.0029 30.6271ZM43.26 31.54H54.42V29.54H43.26V31.54ZM54.42 31.54C57.0148 31.54 58.996 32.3142 60.4709 33.7891L61.8851 32.3749C59.9706 30.4604 57.4465 29.54 54.42 29.54V31.54ZM60.4709 33.7891C61.9458 35.264 62.72 37.2452 62.72 39.84H64.72C64.72 36.8135 63.7996 34.2894 61.8851 32.3749L60.4709 33.7891ZM62.72 39.84V42.32H64.72V39.84H62.72ZM62.72 42.32C62.72 44.9148 61.9458 46.896 60.4709 48.3709L61.8851 49.7851C63.7996 47.8706 64.72 45.3465 64.72 42.32H62.72ZM60.4709 48.3709C58.996 49.8458 57.0148 50.62 54.42 50.62V52.62C57.4465 52.62 59.9706 51.6996 61.8851 49.7851L60.4709 48.3709ZM54.42 50.62C47.1412 50.62 39.3209 50.2087 30.958 49.3848L30.762 51.3752C39.1804 52.2046 47.0668 52.62 54.42 52.62V50.62ZM31.86 50.38V42.32H29.86V50.38H31.86Z" fill="#202020" mask="url(#path-4-outside-2_272_251)"/>
</svg>
