<svg width="18" height="18" viewBox="0 0 18 18" fill="none" xmlns="http://www.w3.org/2000/svg">
<g clip-path="url(#clip0_2001_5)">
<path d="M17.0999 12.9419C16.6119 13.1055 16.0629 12.9205 15.8208 12.5108L13.4923 9.65623L13.1547 9.25749L10.4526 12.515C10.2247 12.9069 9.70418 13.088 9.23646 12.9381L12.7176 8.79822L9.47883 5.05752C9.95935 4.90365 10.4949 5.07065 10.7622 5.45626L13.1753 8.346L15.6028 5.46752C15.8325 5.08208 16.3515 4.91041 16.8099 5.0683L15.553 6.54648L13.8506 8.51066C13.6503 8.6692 13.6503 8.94695 13.8506 9.10549L17.093 12.9419H17.0999ZM0.900961 8.74662L1.18461 7.50488C1.9636 5.04954 5.13883 4.02781 7.32338 5.54868C8.60247 6.43905 8.92158 7.7005 8.85914 9.12191H1.65296C1.53654 11.6608 3.60308 13.1938 6.24645 12.4113C7.11752 12.1299 7.77321 11.4881 7.98912 10.6906C8.12883 10.2919 8.35957 10.2234 8.78187 10.3388C8.63917 11.3236 7.99522 12.1961 7.03444 12.7064C5.42731 13.4855 3.43721 13.2601 2.10278 12.1477C1.45927 11.5064 1.07084 10.6958 0.995159 9.83966C0.995159 9.69892 0.942239 9.56757 0.905194 9.44091C0.901666 9.20416 0.899902 8.97273 0.899902 8.74662H0.900961ZM1.66196 8.57493H8.17858C8.13783 6.73459 6.82752 5.42905 5.08009 5.41686C3.13473 5.3934 1.74292 6.67033 1.65719 8.56695L1.66196 8.57493Z" fill="#FFD470" stroke="#FFD470" stroke-width="0.5"/>
</g>
<defs>
<clipPath id="clip0_2001_5">
<rect width="18" height="10" fill="white" transform="translate(0 4)"/>
</clipPath>
</defs>
</svg>
