<svg width="40" height="41" viewBox="0 0 40 41" fill="none" xmlns="http://www.w3.org/2000/svg">
<g clip-path="url(#clip0_59_721)">
<path d="M13.3385 40.6978C15.1067 40.6978 16.8023 39.9955 18.0526 38.7452C19.3028 37.495 20.0052 35.7993 20.0052 34.0312V27.3645H13.3385C11.5704 27.3645 9.87474 28.0669 8.6245 29.3171C7.37425 30.5674 6.67188 32.2631 6.67188 34.0312C6.67188 35.7993 7.37425 37.495 8.6245 38.7452C9.87474 39.9955 11.5704 40.6978 13.3385 40.6978Z" fill="#FFD470"/>
<path d="M6.67188 20.6977C6.67188 18.9296 7.37425 17.2339 8.6245 15.9836C9.87474 14.7334 11.5704 14.031 13.3385 14.031H20.0052V27.3643H13.3385C11.5704 27.3643 9.87474 26.662 8.6245 25.4117C7.37425 24.1615 6.67188 22.4658 6.67188 20.6977Z" fill="#FFD470"/>
<path d="M6.67188 7.36442C6.67187 5.59721 7.37354 3.90231 8.62265 2.65222C9.87177 1.40212 11.5661 0.699135 13.3333 0.697754L20 0.697754V14.0311H13.3385C11.5704 14.0311 9.87474 13.3287 8.6245 12.0785C7.37425 10.8282 6.67188 9.13253 6.67188 7.36442Z" fill="#FFD470"/>
<path d="M20.0051 0.697754H26.6718C28.4399 0.697754 30.1356 1.40013 31.3858 2.65038C32.6361 3.90062 33.3385 5.59631 33.3385 7.36442C33.3385 9.13253 32.6361 10.8282 31.3858 12.0785C30.1356 13.3287 28.4399 14.0311 26.6718 14.0311H20.0051V0.697754Z" fill="#FFE6AB"/>
<path d="M33.3385 20.6977C33.3385 22.4658 32.6361 24.1615 31.3858 25.4117C30.1356 26.662 28.4399 27.3643 26.6718 27.3643C24.9037 27.3643 23.208 26.662 21.9577 25.4117C20.7075 24.1615 20.0051 22.4658 20.0051 20.6977C20.0051 18.9296 20.7075 17.2339 21.9577 15.9836C23.208 14.7334 24.9037 14.031 26.6718 14.031C28.4399 14.031 30.1356 14.7334 31.3858 15.9836C32.6361 17.2339 33.3385 18.9296 33.3385 20.6977Z" fill="#FFE6AB"/>
</g>
<defs>
<clipPath id="clip0_59_721">
<rect width="40" height="40" fill="white" transform="translate(0 0.697754)"/>
</clipPath>
</defs>
</svg>
