<svg width="40" height="41" viewBox="0 0 40 41" fill="none" xmlns="http://www.w3.org/2000/svg">
<g clip-path="url(#clip0_59_727)">
<path d="M39.2448 18.9166L21.7811 1.45289C21.5419 1.21365 21.258 1.02386 20.9455 0.894374C20.633 0.764889 20.2981 0.698242 19.9598 0.698242C19.6216 0.698242 19.2866 0.764889 18.9741 0.894374C18.6616 1.02386 18.3777 1.21365 18.1386 1.45289L14.5136 5.07789L19.1136 9.67789C20.1836 9.30289 21.4086 9.55914 22.2611 10.4116C22.6669 10.8182 22.9502 11.3307 23.0786 11.8905C23.207 12.4504 23.1754 13.0351 22.9873 13.5779L27.4211 18.0116C28.4936 17.6416 29.7311 17.8804 30.5873 18.7391C30.872 19.0239 31.0977 19.3619 31.2517 19.7338C31.4058 20.1058 31.485 20.5045 31.4849 20.9071C31.4849 21.3097 31.4055 21.7083 31.2514 22.0803C31.0973 22.4522 30.8714 22.7901 30.5867 23.0748C30.302 23.3594 29.964 23.5852 29.592 23.7392C29.22 23.8932 28.8213 23.9725 28.4187 23.9724C28.0161 23.9723 27.6175 23.893 27.2456 23.7389C26.8736 23.5847 26.5357 23.3589 26.2511 23.0741C25.3511 22.1741 25.1286 20.8491 25.5836 19.7404L21.4486 15.6054V26.4866C21.7487 26.6352 22.0231 26.831 22.2611 27.0666C22.5457 27.3513 22.7715 27.6892 22.9255 28.0611C23.0796 28.433 23.1589 28.8316 23.1589 29.2341C23.1589 29.6367 23.0796 30.0353 22.9255 30.4072C22.7715 30.7791 22.5457 31.117 22.2611 31.4016C21.9764 31.6863 21.6385 31.9121 21.2666 32.0661C20.8947 32.2202 20.4961 32.2995 20.0936 32.2995C19.691 32.2995 19.2924 32.2202 18.9205 32.0661C18.5486 31.9121 18.2107 31.6863 17.9261 31.4016C17.6411 31.1172 17.415 30.7793 17.2608 30.4074C17.1065 30.0355 17.0271 29.6368 17.0271 29.2341C17.0271 28.8315 17.1065 28.4328 17.2608 28.0609C17.415 27.689 17.6411 27.3511 17.9261 27.0666C18.2223 26.7716 18.5511 26.5479 18.9298 26.3979V15.4154C18.5648 15.2654 18.2223 15.0441 17.9261 14.7466C17.4957 14.3168 17.203 13.7684 17.0855 13.1716C16.9679 12.5747 17.0308 11.9564 17.2661 11.3954L12.7286 6.86039L0.753567 18.8229C0.514134 19.062 0.324188 19.346 0.194592 19.6587C0.0649962 19.9713 -0.00170898 20.3064 -0.00170898 20.6448C-0.00170898 20.9832 0.0649962 21.3183 0.194592 21.6309C0.324188 21.9435 0.514134 22.2275 0.753567 22.4666L18.2186 39.9291C18.4577 40.1684 18.7416 40.3582 19.0541 40.4877C19.3666 40.6171 19.7016 40.6838 20.0398 40.6838C20.3781 40.6838 20.713 40.6171 21.0255 40.4877C21.338 40.3582 21.6219 40.1684 21.8611 39.9291L39.2448 22.5729C39.4842 22.3337 39.6742 22.0497 39.8038 21.7371C39.9334 21.4245 40.0001 21.0894 40.0001 20.751C40.0001 20.4126 39.9334 20.0775 39.8038 19.7649C39.6742 19.4523 39.4842 19.1683 39.2448 18.9291" fill="#FFD470"/>
</g>
<defs>
<clipPath id="clip0_59_727">
<rect width="40" height="40" fill="white" transform="translate(0 0.697754)"/>
</clipPath>
</defs>
</svg>
