<svg width="40" height="40" viewBox="0 0 40 40" fill="none" xmlns="http://www.w3.org/2000/svg">
<g clip-path="url(#clip0_59_752)">
<path d="M5.57499 36.0027L2.36499 0.00146484H37.635L34.4225 35.9977L19.9775 40.0002L5.57499 36.0027Z" fill="#FFD470"/>
<path d="M31.6712 33.7053L34.4175 2.94531H20V36.9416L31.6712 33.7053Z" fill="#FFE6AB"/>
<path d="M19.985 7.36035H8.92749L10.1187 20.7129H20V16.2979H14.1575L13.7537 11.7766H20V7.36035H19.985ZM20 27.7504L19.9812 27.7554L15.0637 26.4279L14.7512 22.9066H10.3162L10.935 29.8391L19.98 32.3391L20 32.3328V27.7504Z" fill="#202020"/>
<path d="M19.9849 20.7129H25.4224L24.9224 26.4379L19.9974 27.7666V32.3604L29.0499 29.8516L30.2624 16.2954H19.9999L19.9849 20.7129ZM30.9399 8.54535L31.0449 7.36035H19.9824V11.7754H30.6474L30.7349 10.7829L30.9399 8.54535Z" fill="#202020"/>
</g>
<defs>
<clipPath id="clip0_59_752">
<rect width="40" height="40" fill="white" transform="translate(0 0.000244141)"/>
</clipPath>
</defs>
</svg>
