<svg width="41" height="40" viewBox="0 0 41 40" fill="none" xmlns="http://www.w3.org/2000/svg">
<g clip-path="url(#clip0_59_740)">
<path d="M0.129883 0.000244141H40.1299V40.0002H0.129883V0.000244141Z" fill="#FFD470"/>
<path d="M26.9996 31.2505C27.8054 32.5661 28.8536 33.5331 30.7076 33.5331C32.265 33.5331 33.26 32.7546 33.26 31.6791C33.26 30.3902 32.2377 29.9337 30.5235 29.1838L29.5838 28.7807C26.8714 27.6251 25.0695 26.1775 25.0695 23.1172C25.0695 20.2981 27.2174 18.1521 30.5742 18.1521C32.9641 18.1521 34.6822 18.9838 35.9203 21.1616L32.9933 23.041C32.3489 21.8854 31.6536 21.4302 30.5742 21.4302C29.4733 21.4302 28.7755 22.1286 28.7755 23.041C28.7755 24.1686 29.4739 24.6251 31.0866 25.3235L32.0263 25.7261C35.22 27.0956 37.0231 28.4918 37.0231 31.6308C37.0231 35.015 34.3647 36.8689 30.7946 36.8689C27.3038 36.8689 25.0485 35.2054 23.945 33.0251L26.9996 31.2505ZM13.7215 31.5762C14.312 32.6238 14.8492 33.5096 16.1406 33.5096C17.3755 33.5096 18.1546 33.0264 18.1546 31.1477V18.3667H21.9133V31.1985C21.9133 35.0905 19.6314 36.8619 16.3006 36.8619C13.2911 36.8619 11.5482 35.3045 10.6619 33.4286L13.7215 31.5762Z" fill="#202020"/>
</g>
<defs>
<clipPath id="clip0_59_740">
<rect width="40.5195" height="40" fill="white" transform="translate(0 0.000244141)"/>
</clipPath>
</defs>
</svg>
