<svg width="40" height="40" viewBox="0 0 40 40" fill="none" xmlns="http://www.w3.org/2000/svg">
<g clip-path="url(#clip0_59_731)">
<path d="M20.0001 23.539C21.9728 23.539 23.572 21.9399 23.572 19.9672C23.572 17.9945 21.9728 16.3953 20.0001 16.3953C18.0274 16.3953 16.4282 17.9945 16.4282 19.9672C16.4282 21.9399 18.0274 23.539 20.0001 23.539Z" fill="#FFD470"/>
<path fill-rule="evenodd" clip-rule="evenodd" d="M20.0002 12.7048C24.7959 12.7048 29.251 13.393 32.6102 14.5494C36.6575 15.9428 39.1459 18.0548 39.1459 19.9672C39.1459 21.9601 36.5087 24.2038 32.1624 25.6439C28.8765 26.7325 24.5525 27.3008 20.0002 27.3008C15.3327 27.3008 10.9129 26.7674 7.58999 25.6319C3.38592 24.1949 0.85376 21.9222 0.85376 19.9672C0.85376 18.0703 3.2297 15.9746 7.22011 14.5834C10.5918 13.4079 15.1569 12.7048 19.9995 12.7048H20.0002Z" stroke="#FFD470" stroke-width="2.73408"/>
<path fill-rule="evenodd" clip-rule="evenodd" d="M13.6779 16.357C16.0738 12.2026 18.8954 8.68705 21.5754 6.35482C24.8043 3.54484 27.8771 2.44438 29.5337 3.39967C31.2602 4.39526 31.8863 7.80082 30.9625 12.2851C30.2647 15.6755 28.5962 19.705 26.322 23.6487C23.9902 27.692 21.3202 31.2542 18.6767 33.5648C15.3317 36.4889 12.0978 37.547 10.4043 36.5704C8.76105 35.6234 8.13264 32.5177 8.92097 28.3658C9.58704 24.8578 11.2586 20.552 13.6771 16.3569L13.6779 16.357Z" stroke="#FFD470" stroke-width="2.73408"/>
<path fill-rule="evenodd" clip-rule="evenodd" d="M13.6839 23.6593C11.2813 19.5096 9.64543 15.3085 8.96262 11.822C8.14069 7.62117 8.72183 4.40933 10.3769 3.45127C12.1017 2.45276 15.3649 3.61104 18.7885 6.651C21.3771 8.94933 24.0351 12.4066 26.316 16.3465C28.6545 20.3859 30.4071 24.4783 31.089 27.9224C31.9517 32.2807 31.2534 35.6108 29.5615 36.5902C27.9198 37.5406 24.9157 36.5344 21.7124 33.7778C19.0059 31.4489 16.1103 27.8502 13.6839 23.6593V23.6593Z" stroke="#FFD470" stroke-width="2.73408"/>
</g>
<defs>
<clipPath id="clip0_59_731">
<rect width="40" height="40" fill="white" transform="translate(0 0.000244141)"/>
</clipPath>
</defs>
</svg>
