<svg width="40" height="40" viewBox="0 0 40 40" fill="none" xmlns="http://www.w3.org/2000/svg">
<path fill-rule="evenodd" clip-rule="evenodd" d="M40 0H0V40H40V0ZM16.2051 34.6667H12.8626V21.4517H8.07032V18.696H20.9973V21.4517H16.2051V34.6667ZM35.4381 29.9075C35.4381 33.0728 32.9811 35.0763 28.9968 35.0763C25.1784 35.0763 22.7656 33.2501 22.5776 30.4165L22.5664 30.2395H25.7872L25.7981 30.3501C25.92 31.5456 27.2149 32.3536 29.0853 32.3536C30.8672 32.3536 32.0957 31.5013 32.0957 30.2728V30.2616C32.0957 29.2104 31.3099 28.6237 29.3288 28.2141L27.6464 27.8712C24.3261 27.196 22.8984 25.6464 22.8984 23.2227V23.2115C22.8984 20.2453 25.444 18.2864 28.9856 18.2864C32.7155 18.2864 34.9069 20.2565 35.1171 22.9237L35.1283 23.0677H31.9851L31.9629 22.9349C31.7747 21.7949 30.668 20.9981 28.9856 20.9981C27.3365 21.0091 26.2408 21.7616 26.2408 22.9571V22.968C26.2408 24.0085 27.0157 24.6283 28.8971 25.0157L30.5904 25.3587C33.9661 26.056 35.4381 27.4061 35.4381 29.8965V29.9075Z" fill="#FFD470"/>
</svg>
