<svg width="40" height="41" viewBox="0 0 40 41" fill="none" xmlns="http://www.w3.org/2000/svg">
<path d="M39.8676 5.92781L21.0776 39.5274C20.6896 40.221 19.693 40.2252 19.2991 39.5349L0.136623 5.93095C-0.292314 5.1786 0.350806 4.26739 1.20325 4.41966L20.0136 7.78196C20.1335 7.80341 20.2564 7.80322 20.3763 7.78138L38.7931 4.42452C39.6427 4.26968 40.2891 5.17402 39.8676 5.92781Z" fill="#FFD470"/>
<path d="M28.9738 0.00987157L15.0686 2.73448C14.9575 2.75622 14.8568 2.81429 14.7822 2.89955C14.7077 2.98481 14.6637 3.09242 14.657 3.20545L13.8017 17.6518C13.7817 17.9921 14.0941 18.2561 14.4261 18.1795L18.2975 17.2862C18.6598 17.2025 18.9871 17.5216 18.9126 17.8858L17.7625 23.5182C17.685 23.8971 18.0409 24.2214 18.4111 24.109L20.8022 23.3824C21.173 23.2698 21.5291 23.595 21.4508 23.9743L19.6229 32.8214C19.5086 33.3747 20.2446 33.6764 20.5516 33.202L20.7566 32.8852L32.0873 10.2728C32.277 9.89415 31.95 9.4625 31.5339 9.54271L27.5491 10.3118C27.1745 10.384 26.856 10.0353 26.9616 9.66882L29.5626 0.652562C29.6684 0.285392 29.3487 -0.0636196 28.9738 0.00987157Z" fill="#FFF1D1"/>
</svg>
